<?xml version="1.0" encoding="UTF-8"?>
<svg width="44px" height="26px" viewBox="0 0 44 26" version="1.1" xmlns="http://www.w3.org/2000/svg" xmlns:xlink="http://www.w3.org/1999/xlink">
    <!-- Generator: Sketch 49.1 (51147) - http://www.bohemiancoding.com/sketch -->
    <title>citi-logo-mobile</title>
    <desc>Created with Sketch.</desc>
    <defs></defs>
    <g id="Page-1" stroke="none" stroke-width="1" fill="none" fill-rule="evenodd">
        <g id="citi-logo-mobile" fill-rule="nonzero">
            <g id="lock/tag" transform="translate(0.000000, 0.000000)">
                <g id="Citi-Logo---WHITE">
                    <g id="Group">
                        <g id="umbrella" transform="translate(13.269841, 0.227842)" fill="#D0021B">
                            <path d="M26.2511683,7.02383158 C23.2885016,2.90967368 18.3653905,0.456094737 13.3563746,0.456094737 C8.34875556,0.456094737 3.42494603,2.90967368 0.467168254,7.02383158 L0.314215873,7.23593684 L4.04653333,7.23593684 L4.0884381,7.19146316 C6.62856508,4.62156842 9.94462857,3.26272632 13.3563746,3.26272632 C16.7681206,3.26272632 20.0841841,4.62156842 22.6285016,7.19146316 L22.6704063,7.23593684 L26.401327,7.23593684 L26.2511683,7.02383158 Z" id="Fill-1"></path>
                        </g>
                        <g id="Citi" transform="translate(0.000000, 4.789474)" fill="#FFFFFF">
                            <path d="M12.1048889,16.1451105 L12.032254,16.2135316 C10.8868571,17.3575316 9.55987302,17.9630579 8.19307937,17.9630579 C5.34006349,17.9630579 3.26926984,15.8666368 3.26926984,12.9731105 C3.26926984,10.0850579 5.34006349,7.98453158 8.19307937,7.98453158 C9.55987302,7.98453158 10.8868571,8.59347895 12.032254,9.74158421 L12.1048889,9.81000526 L13.9382222,7.63558421 L13.8886349,7.57674211 C12.3646984,5.81011053 10.5327619,4.95279474 8.28038095,4.95279474 C6.02311111,4.95279474 3.95860317,5.69653158 2.47098413,7.03895263 C0.852063492,8.4929 0,10.5448474 0,12.9731105 C0,15.4000053 0.852063492,17.4567421 2.47098413,18.9120579 C3.95860317,20.2606368 6.02311111,21.0016368 8.28038095,21.0016368 C10.5327619,21.0016368 12.3646984,20.1429526 13.8886349,18.3749526 L13.9382222,18.3209 L12.1048889,16.1451105 Z" id="Fill-4"></path>
                            <polygon id="Fill-6" points="15.7932063 20.7055789 19.0352381 20.7055789 19.0352381 5.20205263 15.7932063 5.20205263"></polygon>
                            <path d="M31.783854,17.3357737 C30.9206159,17.8516684 30.1139492,18.1103 29.3910921,18.1103 C28.3448698,18.1103 27.871346,17.5690895 27.871346,16.3621421 L27.871346,8.13724737 L31.1741397,8.13724737 L31.1741397,5.21840526 L27.871346,5.21840526 L27.871346,0.392668421 L24.6949651,2.05940526 L24.6949651,5.21840526 L21.9529968,5.21840526 L21.9529968,8.13724737 L24.6949651,8.13724737 L24.6949651,16.8869316 C24.6949651,19.2700368 26.1350921,20.8998263 28.2876,20.9415632 C29.7486794,20.9696158 30.6286794,20.5440368 31.1643619,20.2313526 L31.1971873,20.2094579 L31.9759175,17.2208263 L31.783854,17.3357737 Z" id="Fill-8"></path>
                            <polygon id="Fill-9" points="34.416381 20.7055789 37.6605079 20.7055789 37.6605079 5.20205263 34.416381 5.20205263"></polygon>
                            <path d="M42.658419,3.18520526 C42.658419,3.36446842 42.5327048,3.44315263 42.3622921,3.44315263 L41.8727048,3.44315263 L41.8727048,2.92725789 L42.3622921,2.92725789 C42.5327048,2.92725789 42.658419,3.01483684 42.658419,3.18520526 M42.9775937,3.17562632 C42.9775937,2.79862632 42.7010222,2.62825789 42.3734667,2.62825789 L41.5591175,2.62825789 L41.5591175,4.44278421 L41.8727048,4.44278421 L41.8727048,3.74352105 L42.2302921,3.74352105 L42.5913714,4.44278421 L42.9650222,4.44278421 L42.5850857,3.71136316 C42.8232444,3.64157368 42.9775937,3.46094211 42.9775937,3.17562632 M43.9008952,3.56836316 C43.9008952,2.62346842 43.1682603,1.90504737 42.2044508,1.90504737 C41.2399429,1.90504737 40.5045143,2.62346842 40.5045143,3.56836316 C40.5045143,4.51257368 41.2399429,5.23031053 42.2044508,5.23031053 C43.1682603,5.23031053 43.9008952,4.51257368 43.9008952,3.56836316 M43.6285143,3.56836316 C43.6285143,4.35931053 43.010419,4.96415263 42.2044508,4.96415263 C41.3935937,4.96415263 40.7775937,4.35931053 40.7775937,3.56836316 C40.7775937,2.77467895 41.3935937,2.17257368 42.2044508,2.17257368 C43.010419,2.17257368 43.6285143,2.77467895 43.6285143,3.56836316" id="Fill-10"></path>
                        </g>
                    </g>
                </g>
            </g>
        </g>
    </g>
</svg>