<svg xmlns="http://www.w3.org/2000/svg" viewBox="0 0 226.43 19.1"><defs><style>.cls-1{fill:#2c2c2c;}.cls-2,.cls-3{fill:#233d6e;}.cls-2,.cls-4{fill-rule:evenodd;}.cls-4{fill:#cb2229;}</style></defs><title>Asset 1</title><g id="Layer_2" data-name="Layer 2"><g id="Layer_1-2" data-name="Layer 1"><path class="cls-1" d="M158,3h-9.49a.31.31,0,0,0-.31.31V18.71a.31.31,0,0,0,.31.31H158a.31.31,0,0,0,.31-.31V16.55a.31.31,0,0,0-.31-.31h-6.91V12.53h5.52a.31.31,0,0,0,.31-.31V10.08a.31.31,0,0,0-.31-.31h-5.52v-4H158a.31.31,0,0,0,.31-.31V3.28A.31.31,0,0,0,158,3Z"/><path class="cls-1" d="M177.17,3.11a.31.31,0,0,0-.26-.14h-2.64a.31.31,0,0,0-.28.18L170.86,10l-3.13-6.89a.31.31,0,0,0-.28-.18h-2.66a.31.31,0,0,0-.28.44L169.34,14v4.74a.31.31,0,0,0,.31.31h2.41a.31.31,0,0,0,.31-.31V14L177.19,3.4A.31.31,0,0,0,177.17,3.11Z"/><path class="cls-1" d="M10,16.14H2.88V3.28A.31.31,0,0,0,2.57,3H.31A.31.31,0,0,0,0,3.28V18.71A.31.31,0,0,0,.31,19H10a.31.31,0,0,0,.31-.31V16.45A.31.31,0,0,0,10,16.14Z"/><rect class="cls-1" x="16.95" y="2.97" width="2.88" height="16.05" rx="0.31" ry="0.31"/><path class="cls-1" d="M38.35,3H28.87a.31.31,0,0,0-.31.31V18.71a.31.31,0,0,0,.31.31h2.27a.31.31,0,0,0,.31-.31V12.53H37a.31.31,0,0,0,.31-.31V10.08A.31.31,0,0,0,37,9.77H31.44v-4h6.91a.31.31,0,0,0,.31-.31V3.28A.31.31,0,0,0,38.35,3Z"/><path class="cls-1" d="M54.51,3H45a.31.31,0,0,0-.31.31V18.71A.31.31,0,0,0,45,19h9.49a.31.31,0,0,0,.31-.31V16.55a.31.31,0,0,0-.31-.31H47.59V12.53h5.52a.31.31,0,0,0,.31-.31V10.08a.31.31,0,0,0-.31-.31H47.59v-4h6.91a.31.31,0,0,0,.31-.31V3.28A.31.31,0,0,0,54.51,3Z"/><path class="cls-1" d="M99.09,3a.31.31,0,0,0-.34.09L91.61,9.86,84.46,3.07a.31.31,0,0,0-.54.2V18.71a.31.31,0,0,0,.31.31H86.5a.31.31,0,0,0,.31-.31V9.54l4.6,4.18a.31.31,0,0,0,.23.1h0a.31.31,0,0,0,.23-.1L96.41,9.6v9.11a.31.31,0,0,0,.31.31H99a.31.31,0,0,0,.31-.31V3.28A.31.31,0,0,0,99.09,3Z"/><path class="cls-1" d="M119.62,5.3a8.13,8.13,0,0,0-2.55-1.72,8.1,8.1,0,0,0-6.26,0,8.12,8.12,0,0,0-2.55,1.72,8.26,8.26,0,0,0-1.73,2.55,8,8,0,0,0,0,6.26,8.26,8.26,0,0,0,1.73,2.55,8.11,8.11,0,0,0,2.55,1.72,8.1,8.1,0,0,0,6.26,0,8,8,0,0,0,4.27-4.27,8.1,8.1,0,0,0,0-6.26A8.13,8.13,0,0,0,119.62,5.3ZM118.81,11a4.82,4.82,0,0,1-1.43,3.45,5,5,0,0,1-1.56,1,4.94,4.94,0,0,1-3.79,0,5,5,0,0,1-1.56-1A4.82,4.82,0,0,1,109,11a4.73,4.73,0,0,1,.38-1.9A4.92,4.92,0,0,1,112,6.48a4.82,4.82,0,0,1,1.91-.38,4.77,4.77,0,0,1,1.89.38,4.92,4.92,0,0,1,2.61,2.6A4.73,4.73,0,0,1,118.81,11Z"/><path class="cls-1" d="M140.49,3h-2.27a.31.31,0,0,0-.31.31v9l-8.64-9.19a.31.31,0,0,0-.53.21V18.71A.31.31,0,0,0,129,19h2.27a.31.31,0,0,0,.31-.31V10.08l8.65,8.84a.31.31,0,0,0,.22.09l.12,0a.31.31,0,0,0,.19-.28V3.28A.31.31,0,0,0,140.49,3Z"/><path class="cls-1" d="M62.86,13.08l.46-.79h2l.46.79h.82l-2-3.51H64l-2,3.51Zm2-1.55H63.75l.55-1Z"/><polygon class="cls-1" points="68.54 13.08 68.54 10.8 70.48 13.08 71.16 13.08 71.16 9.57 70.39 9.57 70.39 11.85 68.44 9.57 67.77 9.57 67.77 13.08 68.54 13.08"/><path class="cls-1" d="M75,13.08a1.65,1.65,0,0,0,1.72-1.76A1.65,1.65,0,0,0,75,9.57H73v3.51Zm-1.18-2.74H75a.9.9,0,0,1,.94,1,.91.91,0,0,1-1,1H73.79Z"/><path class="cls-1" d="M184.75,11.92a1,1,0,0,0,.49-.85.94.94,0,0,0-.37-.79,1.73,1.73,0,0,0-1.15-.31,5,5,0,0,0-.95.08l-.1,0v4.06l.11,0a6,6,0,0,0,.8,0,2.08,2.08,0,0,0,1.44-.4,1.18,1.18,0,0,0,.37-.87A1.09,1.09,0,0,0,184.75,11.92Zm-.15,1c0,.53-.48.64-.88.64h-.3V12.28h.29C184,12.28,184.6,12.34,184.6,12.91Zm-1.18-1.26v-1l.32,0c.73,0,.73.39.73.51,0,.32-.28.53-.72.53Z"/><path class="cls-1" d="M189.21,10l-.64,1.22-.25.5-.28-.58L187.46,10h-.86l1.32,2.41v1.75h.76V12.4l1.4-2.41Z"/><path class="cls-2" d="M205.6,15.4l-.05.05a4,4,0,0,1-2.86,1.33A3.61,3.61,0,0,1,199,13a3.62,3.62,0,0,1,3.67-3.8,4,4,0,0,1,2.86,1.34l.05.05L207,8.92l0,0a5.22,5.22,0,0,0-4.18-2,6.35,6.35,0,0,0-4.33,1.59A5.93,5.93,0,0,0,196.57,13a5.94,5.94,0,0,0,1.84,4.52,6.33,6.33,0,0,0,4.33,1.59,5.22,5.22,0,0,0,4.18-2l0,0L205.6,15.4"/><rect class="cls-3" x="208.35" y="7.07" width="2.42" height="11.8"/><path class="cls-2" d="M220.24,16.3a3.51,3.51,0,0,1-1.78.59c-.78,0-1.14-.41-1.14-1.33V9.3h2.46V7.08h-2.46V3.4l-2.37,1.27v2.4h-2V9.3h2V16a2.78,2.78,0,0,0,2.68,3.09,3.79,3.79,0,0,0,2.14-.54l0,0,.58-2.28-.14.09"/><rect class="cls-3" x="222.24" y="7.07" width="2.42" height="11.8"/><path class="cls-4" d="M226.32,5a12.34,12.34,0,0,0-9.85-5,11.88,11.88,0,0,0-9.61,5l-.11.16h2.78l0,0a9.48,9.48,0,0,1,13.82,0l0,0h3L226.32,5"/></g></g></svg>