<?xml version="1.0" encoding="UTF-8"?>
<svg width="86px" height="49px" viewBox="0 0 86 49" version="1.1" xmlns="http://www.w3.org/2000/svg" xmlns:xlink="http://www.w3.org/1999/xlink">
    <!-- Generator: Sketch 50.2 (55047) - http://www.bohemiancoding.com/sketch -->
    <title>Group 3</title>
    <desc>Created with Sketch.</desc>
    <defs></defs>
    <g id="Footer-Update" stroke="none" stroke-width="1" fill="none" fill-rule="evenodd">
        <g id="Dsk-Footer" transform="translate(-1329.000000, -196.000000)">
            <g id="Footer" transform="translate(0.000000, 168.000000)">
                <g id="Blue-Wave">
                    <g id="lock/tag" transform="translate(1307.000000, 0.000000)">
                        <g id="Group-3" transform="translate(16.000000, 28.000000)">
                            <g id="Citi-Logo---WHITE" transform="translate(37.000000, 0.000000)">
                                <g>
                                    <g id="umbrella" transform="translate(18.396825, 0.315474)" fill="#D0021B">
                                        <path d="M36.3936651,9.72530526 C32.2863317,4.02877895 25.4611095,0.631515789 18.5167921,0.631515789 C11.5744111,0.631515789 4.74822063,4.02877895 0.647665079,9.72530526 L0.43561746,10.0189895 L5.60996667,10.0189895 L5.6680619,9.95741053 C9.18960159,6.39909474 13.7868714,4.51762105 18.5167921,4.51762105 C23.2467127,4.51762105 27.8439825,6.39909474 31.3713317,9.95741053 L31.429427,10.0189895 L36.6018397,10.0189895 L36.3936651,9.72530526 Z" id="Fill-1"></path>
                                    </g>
                                    <g id="Citi" transform="translate(0.000000, 6.631579)" fill="#FFFFFF">
                                        <path d="M16.7817778,22.3547684 L16.6810794,22.4495053 C15.0931429,24.0335053 13.2534603,24.8719263 11.3585873,24.8719263 C7.40326984,24.8719263 4.53239683,21.9691895 4.53239683,17.9627684 C4.53239683,13.9639263 7.40326984,11.0555053 11.3585873,11.0555053 C13.2534603,11.0555053 15.0931429,11.8986632 16.6810794,13.4883474 L16.7817778,13.5830842 L19.3234444,10.5723474 L19.2546984,10.4908737 C17.1419683,8.04476842 14.6022381,6.85771579 11.479619,6.85771579 C8.35022222,6.85771579 5.48806349,7.88750526 3.42568254,9.74624211 C1.18126984,11.7594 0,14.6005579 0,17.9627684 C0,21.3230842 1.18126984,24.1708737 3.42568254,26.1859263 C5.48806349,28.0531895 8.35022222,29.0791895 11.479619,29.0791895 C14.6022381,29.0791895 17.1419683,27.8902421 19.2546984,25.4422421 L19.3234444,25.3674 L16.7817778,22.3547684 Z" id="Fill-4"></path>
                                        <polygon id="Fill-6" points="21.895127 28.6692632 26.3897619 28.6692632 26.3897619 7.20284211 21.895127 7.20284211"></polygon>
                                        <path d="M44.0639794,24.0033789 C42.8672175,24.7176947 41.7488841,25.0758 40.7467413,25.0758 C39.2962968,25.0758 38.6398206,24.3264316 38.6398206,22.6552737 L38.6398206,11.2669579 L43.2186937,11.2669579 L43.2186937,7.22548421 L38.6398206,7.22548421 L38.6398206,0.543694737 L34.2362016,2.85148421 L34.2362016,7.22548421 L30.4348365,7.22548421 L30.4348365,11.2669579 L34.2362016,11.2669579 L34.2362016,23.3819053 C34.2362016,26.6815895 36.2327413,28.9382211 39.2169,28.9960105 C41.2424873,29.0348526 42.4624873,28.4455895 43.2051381,28.0126421 L43.250646,27.9823263 L44.3302492,23.8442211 L44.0639794,24.0033789 Z" id="Fill-8"></path>
                                        <polygon id="Fill-9" points="47.713619 28.6692632 52.2111587 28.6692632 52.2111587 7.20284211 47.713619 7.20284211"></polygon>
                                    </g>
                                </g>
                            </g>
                            <path d="M12.826,41.7 L13.519,41.7 L11.161,48 L10.369,48 L10.099,43.968 C10.072,43.554 10.045,42.933 10.045,42.546 C9.901,42.933 9.667,43.536 9.487,43.968 L7.795,48 L7.021,48 L6.877,41.7 L7.57,41.7 L7.588,45.75 C7.588,46.164 7.579,46.848 7.579,47.154 C7.687,46.848 7.948,46.173 8.119,45.768 L9.82,41.7 L10.576,41.7 L10.855,45.768 C10.882,46.173 10.909,46.848 10.909,47.154 C11.017,46.848 11.242,46.164 11.386,45.75 L12.826,41.7 Z M16.066,43.176 C17.164,43.176 17.767,43.932 17.767,45.066 C17.767,45.381 17.731,45.669 17.677,45.867 L14.527,45.867 C14.455,46.875 14.869,47.514 15.76,47.514 C16.192,47.514 16.516,47.379 16.948,47.136 L17.2,47.649 C16.687,47.946 16.237,48.099 15.652,48.099 C14.608,48.099 13.852,47.397 13.852,46.146 C13.852,44.355 14.824,43.176 16.066,43.176 Z M14.608,45.318 L17.11,45.318 C17.182,44.4 16.849,43.761 16.03,43.761 C15.265,43.761 14.788,44.4 14.608,45.318 Z M19.63,41.817 L20.377,41.439 L19.207,48 L18.532,48 L19.63,41.817 Z M23.203,43.176 C23.968,43.176 24.382,43.464 24.715,43.815 L24.247,44.292 C23.995,43.986 23.653,43.761 23.167,43.761 C22.24,43.761 21.619,44.733 21.619,46.065 C21.619,47.01 22.06,47.514 22.843,47.514 C23.23,47.514 23.509,47.361 23.851,47.064 L24.193,47.505 C23.743,47.91 23.311,48.099 22.762,48.099 C21.655,48.099 20.935,47.361 20.935,46.083 C20.935,44.283 22.006,43.176 23.203,43.176 Z M27.622,43.176 C28.765,43.176 29.503,43.95 29.503,45.192 C29.503,46.992 28.432,48.099 27.235,48.099 C26.092,48.099 25.354,47.325 25.354,46.083 C25.354,44.283 26.425,43.176 27.622,43.176 Z M27.298,47.514 C28.189,47.514 28.819,46.551 28.819,45.21 C28.819,44.301 28.369,43.761 27.559,43.761 C26.668,43.761 26.038,44.724 26.038,46.065 C26.038,46.974 26.488,47.514 27.298,47.514 Z M35.542,43.176 C36.352,43.176 36.91,43.68 36.91,44.553 C36.91,44.724 36.892,45.021 36.856,45.21 L36.352,48 L35.677,48 L36.163,45.282 C36.19,45.111 36.208,44.832 36.208,44.679 C36.208,44.103 35.974,43.743 35.389,43.743 C34.759,43.743 34.273,44.373 34.102,45.327 L33.625,48 L32.95,48 L33.436,45.282 C33.463,45.111 33.481,44.832 33.481,44.679 C33.481,44.103 33.247,43.743 32.662,43.743 C32.032,43.743 31.546,44.373 31.375,45.327 L30.898,48 L30.223,48 L31.06,43.275 L31.726,43.275 L31.645,43.806 C31.933,43.437 32.275,43.176 32.86,43.176 C33.49,43.176 33.841,43.491 34.012,44.004 C34.39,43.518 34.813,43.176 35.542,43.176 Z M40.222,43.176 C41.32,43.176 41.923,43.932 41.923,45.066 C41.923,45.381 41.887,45.669 41.833,45.867 L38.683,45.867 C38.611,46.875 39.025,47.514 39.916,47.514 C40.348,47.514 40.672,47.379 41.104,47.136 L41.356,47.649 C40.843,47.946 40.393,48.099 39.808,48.099 C38.764,48.099 38.008,47.397 38.008,46.146 C38.008,44.355 38.98,43.176 40.222,43.176 Z M38.764,45.318 L41.266,45.318 C41.338,44.4 41.005,43.761 40.186,43.761 C39.421,43.761 38.944,44.4 38.764,45.318 Z M50.464,43.275 L51.148,43.275 L49.078,48 L48.457,48 L48.169,44.832 C48.151,44.67 48.142,44.337 48.142,44.166 C48.088,44.337 47.953,44.67 47.881,44.832 L46.477,48 L45.874,48 L45.46,43.275 L46.144,43.275 L46.324,46.398 C46.333,46.56 46.342,46.893 46.342,47.064 C46.414,46.893 46.54,46.56 46.612,46.398 L47.998,43.275 L48.61,43.275 L48.898,46.398 C48.916,46.56 48.934,46.893 48.934,47.064 C49.006,46.893 49.123,46.56 49.186,46.398 L50.464,43.275 Z M54.199,43.176 C55.027,43.176 55.639,43.662 55.639,44.643 C55.639,44.814 55.621,45.021 55.585,45.21 L55.081,48 L54.406,48 L54.892,45.282 C54.919,45.111 54.937,44.922 54.937,44.769 C54.937,44.103 54.658,43.743 54.019,43.743 C53.371,43.743 52.813,44.319 52.633,45.327 L52.156,48 L51.481,48 L52.579,41.817 L53.326,41.439 L52.903,43.806 C53.209,43.455 53.587,43.176 54.199,43.176 Z M59.437,46.839 L59.608,45.885 C59.311,45.723 58.933,45.615 58.393,45.615 C57.628,45.615 57.169,46.047 57.169,46.749 C57.169,47.271 57.484,47.55 58.051,47.55 C58.6,47.55 59.086,47.235 59.437,46.839 Z M59.023,43.176 C59.968,43.176 60.517,43.545 60.517,44.364 C60.517,44.481 60.499,44.616 60.481,44.742 L59.905,48 L59.239,48 L59.329,47.46 C58.969,47.802 58.501,48.099 57.889,48.099 C57.142,48.099 56.494,47.748 56.494,46.857 C56.494,45.678 57.385,45.075 58.492,45.075 C58.96,45.075 59.401,45.192 59.698,45.345 L59.797,44.787 C59.815,44.688 59.824,44.553 59.824,44.463 C59.824,43.977 59.554,43.743 58.969,43.743 C58.483,43.743 58.078,43.878 57.655,44.103 L57.448,43.572 C57.898,43.347 58.465,43.176 59.023,43.176 Z M63.1,43.275 L64.27,43.275 L64.162,43.842 L62.992,43.842 L62.461,46.884 C62.443,46.983 62.434,47.109 62.434,47.181 C62.434,47.397 62.578,47.505 62.857,47.505 C63.172,47.505 63.343,47.469 63.532,47.388 L63.37,47.982 C63.136,48.072 62.947,48.099 62.722,48.099 C62.065,48.099 61.732,47.847 61.732,47.307 C61.732,47.208 61.75,47.1 61.768,46.983 L62.317,43.842 L61.732,43.842 L61.84,43.275 L62.425,43.275 L62.677,41.817 L63.424,41.439 L63.1,43.275 Z M65.872,41.7 L66.817,41.7 L65.872,43.707 L65.377,43.707 L65.872,41.7 Z M68.959,43.176 C69.661,43.176 70.174,43.437 70.507,43.752 L70.093,44.238 C69.742,43.914 69.4,43.752 68.887,43.752 C68.356,43.752 68.068,44.022 68.068,44.382 C68.068,44.724 68.221,44.895 68.986,45.273 C69.841,45.696 70.174,46.029 70.174,46.641 C70.174,47.667 69.373,48.099 68.5,48.099 C67.78,48.099 67.195,47.829 66.79,47.415 L67.204,46.938 C67.564,47.307 68.005,47.523 68.545,47.523 C69.157,47.523 69.526,47.226 69.526,46.758 C69.526,46.416 69.346,46.191 68.554,45.822 C67.726,45.435 67.42,45.075 67.42,44.517 C67.42,43.707 67.987,43.176 68.959,43.176 Z M76.168,43.176 C76.996,43.176 77.608,43.662 77.608,44.643 C77.608,44.814 77.59,45.021 77.554,45.21 L77.05,48 L76.375,48 L76.861,45.282 C76.888,45.111 76.906,44.922 76.906,44.769 C76.906,44.103 76.627,43.743 75.988,43.743 C75.34,43.743 74.782,44.319 74.602,45.327 L74.125,48 L73.45,48 L74.287,43.275 L74.953,43.275 L74.872,43.806 C75.178,43.455 75.556,43.176 76.168,43.176 Z M80.92,43.176 C82.018,43.176 82.621,43.932 82.621,45.066 C82.621,45.381 82.585,45.669 82.531,45.867 L79.381,45.867 C79.309,46.875 79.723,47.514 80.614,47.514 C81.046,47.514 81.37,47.379 81.802,47.136 L82.054,47.649 C81.541,47.946 81.091,48.099 80.506,48.099 C79.462,48.099 78.706,47.397 78.706,46.146 C78.706,44.355 79.678,43.176 80.92,43.176 Z M79.462,45.318 L81.964,45.318 C82.036,44.4 81.703,43.761 80.884,43.761 C80.119,43.761 79.642,44.4 79.462,45.318 Z M86.626,43.275 L87.364,43.275 L85.618,45.57 L86.635,48 L85.942,48 L85.285,46.308 C85.258,46.236 85.213,46.128 85.186,46.047 C85.132,46.137 85.069,46.227 84.997,46.326 L83.791,48 L83.053,48 L84.934,45.534 L83.98,43.275 L84.673,43.275 L85.267,44.796 C85.303,44.886 85.33,44.958 85.366,45.057 C85.42,44.967 85.492,44.868 85.555,44.778 L86.626,43.275 Z M89.578,43.275 L90.748,43.275 L90.64,43.842 L89.47,43.842 L88.939,46.884 C88.921,46.983 88.912,47.109 88.912,47.181 C88.912,47.397 89.056,47.505 89.335,47.505 C89.65,47.505 89.821,47.469 90.01,47.388 L89.848,47.982 C89.614,48.072 89.425,48.099 89.2,48.099 C88.543,48.099 88.21,47.847 88.21,47.307 C88.21,47.208 88.228,47.1 88.246,46.983 L88.795,43.842 L88.21,43.842 L88.318,43.275 L88.903,43.275 L89.155,41.817 L89.902,41.439 L89.578,43.275 Z" id="Welcome-what’s-next" fill="#FFFFFF"></path>
                        </g>
                    </g>
                </g>
            </g>
        </g>
    </g>
</svg>